<?xml version="1.0" encoding="UTF-8" standalone="no"?>
<svg
   xmlns:dc="http://purl.org/dc/elements/1.1/"
   xmlns:cc="http://creativecommons.org/ns#"
   xmlns:rdf="http://www.w3.org/1999/02/22-rdf-syntax-ns#"
   xmlns:svg="http://www.w3.org/2000/svg"
   xmlns="http://www.w3.org/2000/svg"
   xmlns:sodipodi="http://sodipodi.sourceforge.net/DTD/sodipodi-0.dtd"
   xmlns:inkscape="http://www.inkscape.org/namespaces/inkscape"
   sodipodi:docname="helm.svg"
   inkscape:version="1.0 (4035a4fb49, 2020-05-01)"
   id="svg4879"
   version="1.1"
   viewBox="0 0 129.57524 180.75653"
   height="180.75653mm"
   width="129.57524mm">
  <defs
     id="defs4873" />
  <sodipodi:namedview
     inkscape:window-maximized="0"
     inkscape:window-y="0"
     inkscape:window-x="208"
     inkscape:window-height="1040"
     inkscape:window-width="1274"
     showgrid="false"
     inkscape:document-rotation="0"
     inkscape:current-layer="layer1"
     inkscape:document-units="mm"
     inkscape:cy="350.1586"
     inkscape:cx="247.72855"
     inkscape:zoom="0.35"
     inkscape:pageshadow="2"
     inkscape:pageopacity="0.0"
     borderopacity="1.0"
     bordercolor="#666666"
     pagecolor="#ffffff"
     id="base" />
  <metadata
     id="metadata4876">
    <rdf:RDF>
      <cc:Work
         rdf:about="">
        <dc:format>image/svg+xml</dc:format>
        <dc:type
           rdf:resource="http://purl.org/dc/dcmitype/StillImage" />
        <dc:title></dc:title>
      </cc:Work>
    </rdf:RDF>
  </metadata>
  <g
     transform="translate(-40.288487,-55.520537)"
     id="layer1"
     inkscape:groupmode="layer"
     inkscape:label="Layer 1">
    <path
       id="path4848"
       style="display:inline;opacity:0.993548;fill:#7fa9ff;fill-opacity:1;fill-rule:nonzero;stroke:#0001ff;stroke-width:5.65684;stroke-linecap:round;stroke-linejoin:miter;stroke-miterlimit:4;stroke-dasharray:none;stroke-opacity:0;paint-order:markers fill stroke"
       d="m 103.05561,81.850648 c -9.408026,0.297431 -18.524596,3.62935 -26.429676,8.632809 -5.47305,3.40945 -10.42213,7.590441 -14.95575,12.163223 -5.1531,5.07052 -9.82349,10.61452 -14.06962,16.46276 -0.63202,0.92279 -1.43394,1.78908 -1.96487,2.74551 0.13016,13.02155 0.41362,26.04148 0.61519,39.06221 0.165,8.89259 0.27584,17.79002 0.47466,26.67958 0.57088,1.1728 1.69924,1.96229 2.59602,2.88028 6.86749,6.30371 13.9273,12.39379 20.91131,18.568 6.12719,5.34645 12.21098,10.74578 18.43993,15.9736 0.33897,0.10323 1.28092,1.13002 1.13207,0.49813 -1.40188,-7.1151 -3.03669,-14.18321 -4.56219,-21.27299 -3.298,-15.02604 -6.57295,-30.05819 -9.9804,-45.05878 -0.0136,-0.6511 -0.43757,-1.10742 -1.00102,-1.3742 -5.52252,-3.27233 -11.28907,-6.10938 -16.93509,-9.15999 -0.55836,-0.32083 -1.18274,-0.58897 -1.69634,-0.95248 -1.20474,-5.80126 -2.19342,-11.63628 -3.11673,-17.49546 -0.29851,-0.73639 0.11362,-0.8613 0.79373,-0.72749 12.65958,0.50863 25.33097,1.18488 37.96527,1.92776 1.23149,0.0858 2.49106,0.12994 3.70344,0.26784 3.09287,13.12237 5.753126,26.34744 8.894526,39.46485 0.93763,0.0765 1.87494,0.15696 2.8125,0.23437 2.60699,-13.2694 5.09789,-26.56223 7.72265,-39.82812 2.94936,-0.32324 6.04131,-0.26877 9.05432,-0.37154 11.04428,-0.19025 22.08896,-0.42021 33.13513,-0.44292 -1.57695,5.62103 -3.26796,11.19939 -5.11068,16.73943 -0.26938,0.65886 -1.09311,0.89747 -1.59198,1.3775 -4.81671,3.51874 -9.73512,6.90037 -14.47116,10.5237 -0.38227,0.64007 -0.35788,1.51454 -0.58187,2.24577 -4.3447,20.87865 -8.66775,41.76635 -12.93376,62.65853 -0.32021,0.0995 -0.0959,1.08893 0.31976,1.23 0.59622,0.32111 0.95285,-0.53542 1.43149,-0.7941 12.58517,-11.07225 25.11929,-22.21062 37.62274,-33.37191 0.6599,-0.69889 1.75647,-1.19666 1.76379,-2.29322 0.37255,-3.91855 0.35194,-7.86512 0.48981,-11.79751 0.44323,-18.56205 0.83294,-37.12535 1.24546,-55.68811 -5.60881,-7.63885 -11.79241,-14.89441 -18.85683,-21.23396 -7.71744,-6.923131 -16.48361,-12.992602 -26.45255,-16.13478 -5.28784,-1.694786 -10.85913,-2.525769 -16.41328,-2.338292 z" />
    <path
       style="color:#000000;font-style:normal;font-variant:normal;font-weight:normal;font-stretch:normal;font-size:medium;line-height:normal;font-family:sans-serif;font-variant-ligatures:normal;font-variant-position:normal;font-variant-caps:normal;font-variant-numeric:normal;font-variant-alternates:normal;font-variant-east-asian:normal;font-feature-settings:normal;font-variation-settings:normal;text-indent:0;text-align:start;text-decoration:none;text-decoration-line:none;text-decoration-style:solid;text-decoration-color:#000000;letter-spacing:normal;word-spacing:normal;text-transform:none;writing-mode:lr-tb;direction:ltr;text-orientation:mixed;dominant-baseline:auto;baseline-shift:baseline;text-anchor:start;white-space:normal;shape-padding:0;shape-margin:0;inline-size:0;clip-rule:nonzero;display:inline;overflow:visible;visibility:visible;opacity:1;isolation:auto;mix-blend-mode:normal;color-interpolation:sRGB;color-interpolation-filters:linearRGB;solid-color:#000000;solid-opacity:1;vector-effect:none;fill:#000000;fill-opacity:1;fill-rule:evenodd;stroke:none;stroke-width:5.60001;stroke-linecap:round;stroke-linejoin:miter;stroke-miterlimit:4;stroke-dasharray:none;stroke-dashoffset:0;stroke-opacity:1;color-rendering:auto;image-rendering:auto;shape-rendering:auto;text-rendering:auto;enable-background:accumulate;stop-color:#000000;stop-opacity:1"
       d="M 105.66108,76.678773 C 83.285694,76.188031 61.111344,90.320256 40.877884,119.46003 c -0.0152,0.02 -0.0302,0.0401 -0.0449,0.0605 -0.0149,0.0215 -0.03,0.0391 -0.0449,0.0606 -0.003,0.005 -0.007,0.0104 -0.01,0.0156 -0.0229,0.0334 -0.045,0.0672 -0.0664,0.10157 -0.003,0.006 -0.007,0.0117 -0.01,0.0176 -0.0216,0.0347 -0.0424,0.0699 -0.0625,0.10546 -0.003,0.005 -0.005,0.0104 -0.008,0.0156 -0.0197,0.0354 -0.0385,0.0712 -0.0566,0.10742 -0.003,0.006 -0.005,0.0117 -0.008,0.0176 -0.0184,0.038 -0.036,0.0764 -0.0527,0.11523 -0.009,0.0207 -0.0172,0.0416 -0.0254,0.0625 -0.009,0.0214 -0.0172,0.0429 -0.0254,0.0645 -0.002,0.006 -0.004,0.0117 -0.006,0.0176 -0.0139,0.0388 -0.0269,0.0778 -0.0391,0.11719 -0.007,0.0227 -0.0133,0.0455 -0.0195,0.0684 -0.007,0.0214 -0.0133,0.0429 -0.0195,0.0645 -0.001,0.006 -0.003,0.0117 -0.004,0.0176 -0.0108,0.0434 -0.0206,0.087 -0.0293,0.13086 -6.7e-4,0.003 -10e-4,0.005 -0.002,0.008 -0.008,0.0396 -0.0152,0.0793 -0.0215,0.11914 -0.006,0.0389 -0.0112,0.078 -0.0156,0.11718 -10e-4,0.01 -0.003,0.0195 -0.004,0.0293 -6.8e-4,0.004 -0.001,0.008 -0.002,0.0117 -0.004,0.0403 -0.006,0.0807 -0.008,0.12109 -0.002,0.0403 -0.004,0.0807 -0.004,0.1211 -5e-5,0.01 -5e-5,0.0195 0,0.0293 -1.3e-4,0.0156 -1.3e-4,0.0313 0,0.0469 2.5e-4,0.028 9.1e-4,0.056 0.002,0.084 l 1.15234,69.56835 50.12305,44.04297 c 0,0 2.78345,1.56596 4.27697,1.23354 1.50972,-0.33586 1.18006,-2.49135 1.18006,-2.49135 l -17.6982,-79.50206 -19.01376,-10.20164 -1.59604,-8.22454 30.95542,1.04029 c 3.85973,11.86351 7.73736,23.72115 11.619326,35.5774 l 3.92937,4.76287 3.75872,-4.61568 c 2.73708,-12.11515 6.70921,-23.42621 10.40909,-35.26849 l 29.9974,-1.17866 -1.71793,7.35833 -16.97432,12.56159 -16.07914,77.67848 c 0.12587,1.46992 -0.49328,1.19435 1.40187,2.6276 1.22418,-0.005 2.19298,-0.27681 4.02586,-1.27799 l 48.28516,-42.99414 1.53515,-71.07617 c 10e-4,-0.0234 0.002,-0.0469 0.002,-0.0703 0.001,-0.0462 0.001,-0.0924 0,-0.13867 v -0.002 -0.006 c -0.002,-0.043 -0.004,-0.086 -0.008,-0.12891 v -0.006 c -5.3e-4,-0.003 -0.001,-0.007 -0.002,-0.01 -0.003,-0.0372 -0.006,-0.0743 -0.01,-0.11133 -5.3e-4,-0.006 -0.001,-0.0117 -0.002,-0.0176 -0.004,-0.0307 -0.009,-0.0613 -0.0137,-0.0918 -0.003,-0.0163 -0.005,-0.0326 -0.008,-0.0488 -0.003,-0.0124 -0.005,-0.0248 -0.008,-0.0371 -0.007,-0.0333 -0.0137,-0.0665 -0.0215,-0.0996 -0.009,-0.0419 -0.0198,-0.0836 -0.0312,-0.125 -0.001,-0.004 -0.003,-0.008 -0.004,-0.0117 -0.009,-0.0294 -0.0177,-0.0588 -0.0273,-0.0879 -0.005,-0.015 -0.0103,-0.03 -0.0156,-0.0449 -0.01,-0.0295 -0.0204,-0.0588 -0.0313,-0.0879 -0.006,-0.015 -0.0116,-0.03 -0.0176,-0.0449 -0.0113,-0.0288 -0.023,-0.0575 -0.0352,-0.0859 -0.006,-0.0144 -0.0129,-0.0287 -0.0195,-0.043 -0.0132,-0.0282 -0.0269,-0.0562 -0.041,-0.084 -0.007,-0.0144 -0.0142,-0.0287 -0.0215,-0.043 -0.0145,-0.0276 -0.0295,-0.0549 -0.0449,-0.082 -0.008,-0.0137 -0.0155,-0.0274 -0.0234,-0.041 -0.005,-0.008 -0.009,-0.0156 -0.0137,-0.0234 -0.0171,-0.0283 -0.0346,-0.0563 -0.0527,-0.084 -0.003,-0.004 -0.005,-0.008 -0.008,-0.0117 -0.0172,-0.0257 -0.0347,-0.0511 -0.0527,-0.0762 -0.006,-0.01 -0.0129,-0.0196 -0.0195,-0.0293 -0.003,-0.003 -0.005,-0.006 -0.008,-0.01 -0.008,-0.0105 -0.0169,-0.0209 -0.0254,-0.0312 -0.0203,-0.028 -0.0403,-0.0521 -0.0605,-0.0801 -0.002,-0.003 -0.004,-0.005 -0.006,-0.008 -19.5213,-26.865123 -41.20035,-41.856078 -63.57097,-42.346717 z m -0.12304,5.597655 c 19.77863,0.433793 39.89227,13.789171 58.70702,39.453132 l -1.46484,67.71484 -40.92578,36.44336 13.70898,-66.26376 16.1646,-11.56853 5.48059,-17.78183 -43.22238,0.74303 -7.73492,40.07694 h -2.07887 c -3.03508,-12.1981 -6.135036,-27.58866 -8.936666,-39.84175 l -43.59031,-2.27056 3.41835,19.09656 19.44688,10.22961 14.99219,67.34571 -42.5,-37.34766 -1.09766,-66.2207 C 65.403544,94.246006 85.739644,81.842206 105.53804,82.276428 Z"
       id="path4738"
       sodipodi:nodetypes="scccccccccccccccccccccccccccscccccccccccccccccccccccsccccsccccccccccccccccscccccccccssccccccccccccccccs" />
    <path
       style="display:inline;mix-blend-mode:lighten;fill:#80a9ff;fill-opacity:0.996078;stroke:#000000;stroke-width:4.50001;stroke-linecap:butt;stroke-linejoin:round;stroke-miterlimit:4;stroke-dasharray:none;stroke-opacity:1;paint-order:markers fill stroke"
       d="m 90.198444,57.77054 33.261896,0.188987 -15.92086,46.318793 z"
       id="path883"
       sodipodi:nodetypes="cccc" />
  </g>
</svg>
