<?xml version="1.0" encoding="UTF-8" standalone="no"?>
<svg
   xmlns:dc="http://purl.org/dc/elements/1.1/"
   xmlns:cc="http://creativecommons.org/ns#"
   xmlns:rdf="http://www.w3.org/1999/02/22-rdf-syntax-ns#"
   xmlns:svg="http://www.w3.org/2000/svg"
   xmlns="http://www.w3.org/2000/svg"
   xmlns:sodipodi="http://sodipodi.sourceforge.net/DTD/sodipodi-0.dtd"
   xmlns:inkscape="http://www.inkscape.org/namespaces/inkscape"
   sodipodi:docname="willowlogo.svg"
   inkscape:version="1.0 (4035a4fb49, 2020-05-01)"
   id="svg8"
   version="1.1"
   viewBox="0 0 210 297"
   height="297mm"
   width="210mm">
  <defs
     id="defs2" />
  <sodipodi:namedview
     inkscape:window-maximized="1"
     inkscape:window-y="-8"
     inkscape:window-x="-8"
     inkscape:window-height="1017"
     inkscape:window-width="1920"
     showgrid="false"
     inkscape:document-rotation="0"
     inkscape:current-layer="layer1"
     inkscape:document-units="mm"
     inkscape:cy="448.18771"
     inkscape:cx="1918.4019"
     inkscape:zoom="0.35"
     inkscape:pageshadow="2"
     inkscape:pageopacity="0.0"
     borderopacity="1.0"
     bordercolor="#666666"
     pagecolor="#ffffff"
     id="base" />
  <metadata
     id="metadata5">
    <rdf:RDF>
      <cc:Work
         rdf:about="">
        <dc:format>image/svg+xml</dc:format>
        <dc:type
           rdf:resource="http://purl.org/dc/dcmitype/StillImage" />
        <dc:title></dc:title>
      </cc:Work>
    </rdf:RDF>
  </metadata>
  <g
     id="layer1"
     inkscape:groupmode="layer"
     inkscape:label="Layer 1">
    <path
       d="m 23.401636,165.67845 c 1.375108,6.12802 3.430178,12.10783 5.870557,17.89055 1.031076,2.44323 2.085744,4.87982 3.27067,7.25226 1.312619,2.62811 2.811116,5.15919 4.216675,7.73879 5.185431,8.43154 11.375067,16.23805 18.858661,22.76112 2.737488,2.38614 5.623706,4.60821 8.606912,6.67894 7.422107,5.1519 9.994164,6.03838 17.946748,9.90633 7.656333,3.27728 15.664863,5.65403 23.924211,6.78696 3.0839,0.42302 6.91722,0.68614 10.10546,0.32631 0.95872,-0.1082 1.88458,-0.41446 2.82687,-0.62169 0.26004,-0.35805 0.78791,-0.63169 0.78013,-1.07414 -0.0114,-0.65016 -0.39994,-1.27767 -0.83003,-1.76536 -0.34116,-0.38685 -2.8497,-1.12003 -3.2129,-0.29258 -0.23522,0.53589 0.20448,1.1525 0.30672,1.72875 0.30663,0.16033 0.61325,0.32066 0.91988,0.48098 0.12419,0.0804 1.26086,-1.67594 1.13667,-1.75632 v 0 c -0.22279,-0.054 -0.44558,-0.10792 -0.66837,-0.16188 -1.05838,2.86691 0.30854,0.26442 -1.23858,1.28751 -0.15504,0.10253 0.36912,0.0445 0.5529,0.0724 0.24176,0.0366 0.50364,0.22792 0.72351,0.12094 0.0814,-0.0396 0.43613,-0.56729 0.61202,-0.82752 -3.48959,0.24871 -7.1425,-0.28031 -10.55874,-0.8661 -7.879344,-1.35109 -15.653699,-3.34019 -22.897697,-6.80019 -2.837892,-1.41768 -5.742832,-2.70842 -8.513673,-4.25306 -5.530971,-3.0833 -12.341815,-7.54195 -17.186394,-11.61956 -7.348841,-6.18541 -13.380717,-13.7454 -18.606957,-21.75437 -1.435309,-2.48526 -2.947734,-4.92755 -4.305933,-7.45577 -4.174029,-7.76976 -7.434225,-15.98253 -10.541697,-24.22112 -0.03096,-0.14832 -2.128584,0.28953 -2.097623,0.43785 z"
       id="path893"
       style="opacity:0.993548;fill:#42526e;fill-opacity:1;stroke-width:1.365" />
    <path
       d="m 25.208492,165.65321 c 0.833553,0.29227 1.664044,0.59342 2.500659,0.87681 3.206377,1.0861 6.50181,2.08522 9.638916,3.3541 5.160806,2.08741 10.835613,4.80011 15.727624,7.37263 2.90109,1.52558 5.732272,3.18055 8.598408,4.77082 9.463884,5.61164 18.52686,11.90915 26.319371,19.72012 3.915307,3.92458 4.801952,5.24642 8.281019,9.5427 5.384851,7.03009 10.459881,14.2945 15.979371,21.22082 1.05235,1.40948 2.42501,2.62957 3.30021,4.1725 0.22831,0.40252 0.38196,0.86074 0.54341,1.29209 0.52114,1.72203 1.40367,3.27549 2.3753,4.77602 0.44773,0.50472 0.81707,1.03463 1.09656,1.64504 0.0507,0.13254 1.92518,-0.58464 1.87447,-0.71719 v 0 c -0.30978,-0.65919 -0.64326,-1.30574 -1.11093,-1.87056 -0.85187,-1.41503 -1.77243,-2.80699 -2.25274,-4.40448 -0.21851,-0.67291 -0.30348,-1.01232 -0.63395,-1.66889 -0.81708,-1.62341 -2.11317,-2.95425 -3.05277,-4.50021 -2.82726,-4.07501 -5.53707,-8.23311 -8.38991,-12.29038 -1.08341,-1.54082 -2.20718,-3.05287 -3.31182,-4.57855 -1.18527,-1.63701 -2.37194,-3.27301 -3.55791,-4.90952 -2.639943,-3.28561 -5.433372,-6.89881 -8.337158,-9.96197 -7.754009,-8.1796 -16.836437,-14.99349 -26.48051,-20.77815 -2.940913,-1.60209 -5.830483,-3.30224 -8.822735,-4.80626 -9.294164,-4.6716 -19.121927,-8.27043 -29.355205,-10.20468 -0.137687,-0.0657 -1.067367,1.88145 -0.92968,1.94719 z"
       id="path895"
       style="opacity:0.993548;fill:#42526e;fill-opacity:1;stroke-width:1.365" />
    <path
       d="m 65.90725,204.6934 c 0.466534,0.61614 0.899266,1.25827 1.399603,1.84842 1.953681,2.30439 4.565722,4.95371 6.709728,6.96948 4.186642,3.93621 8.228737,7.37905 12.853651,10.88029 2.719634,2.05887 5.557292,3.9637 8.335936,5.94555 6.311602,4.08058 9.077132,6.00662 15.461802,9.63513 1.91659,1.08923 3.89239,2.07531 5.84017,3.1101 3.52957,1.87514 7.04811,3.73921 10.66123,5.45406 1.25521,0.67415 2.66672,1.03575 3.9185,1.71627 0.9061,0.4926 1.74772,1.16684 2.57531,1.76922 1.8561,1.3641 3.81976,2.58252 5.871,3.64287 0.33923,0.14071 0.62864,0.34255 0.91476,0.56281 0.0906,0.10327 1.58185,-1.15182 1.49124,-1.25508 v 0 c -0.35085,-0.33336 -0.69526,-0.67503 -1.15021,-0.87405 -1.96119,-1.05335 -3.65605,-2.53243 -5.59262,-3.63094 -0.38319,-0.25317 -0.76638,-0.50634 -1.14958,-0.75951 -0.2876,-0.17293 -0.58288,-0.33416 -0.86281,-0.51879 -0.26785,-0.17667 -0.51095,-0.38769 -0.77899,-0.56407 -0.86148,-0.56691 -1.06725,-0.59634 -2.03263,-1.13088 -0.5465,-0.30261 -1.0829,-0.62238 -1.62436,-0.93357 -3.38459,-1.95835 -6.70828,-4.00977 -10.03597,-6.05966 -6.92129,-4.26359 -13.77583,-8.62943 -20.499871,-13.18767 -5.123312,-3.51164 -11.032413,-7.46958 -16.002696,-11.22631 -1.942272,-1.46804 -3.812436,-3.02597 -5.685337,-4.57807 -1.673215,-1.38662 -5.383099,-4.60735 -7.189928,-6.30445 -0.569285,-0.5347 -1.100603,-1.10687 -1.650905,-1.66032 -0.08297,-0.12306 -1.859994,1.02611 -1.777023,1.14917 z"
       id="path897"
       style="opacity:0.993548;fill:#42526e;fill-opacity:1;stroke-width:1.35086" />
    <path
       d="m 112.68968,136.52919 c -0.93038,9.58695 -1.07523,19.20283 -1.04036,28.81027 0.15514,8.09441 0.77889,16.19674 2.4672,24.20354 0.76202,3.61387 1.28866,5.07291 2.35443,8.54109 2.43558,8.77396 4.92839,17.53596 8.01697,26.1995 2.5004,6.52443 5.7088,12.89114 8.99059,19.22092 2.17101,4.27303 4.37936,8.53312 6.75253,12.74792 2.68026,4.31124 5.94523,8.40632 9.47301,12.36708 2.48846,2.94799 5.62862,5.54716 8.42547,8.32721 0.39584,0.45295 0.40473,0.86545 0.73277,1.43839 0.81634,1.27379 1.74946,2.51712 2.74401,3.72099 0.13537,0.16022 0.27079,0.32041 0.40619,0.48063 0.0852,0.13267 2.63356,-0.75392 2.54842,-0.8866 v 0 c -0.12492,-0.17039 -0.24992,-0.34076 -0.3749,-0.51117 -0.91639,-1.17005 -1.8166,-2.34643 -2.75095,-3.50847 -0.0836,-0.12673 -0.21117,-0.23649 -0.28886,-0.36526 -0.24022,-0.39823 -0.0773,-0.94334 -0.49488,-1.30545 -2.21263,-3.05744 -5.28393,-5.72647 -7.82696,-8.62998 -3.52543,-3.81156 -6.98159,-7.67248 -9.41579,-11.94251 -1.14822,-1.97028 -2.3118,-3.94626 -3.33472,-5.95439 -0.92579,-1.81741 -1.07397,-2.37681 -1.96417,-4.26396 -0.39466,-0.83665 -0.82074,-1.66509 -1.2311,-2.49762 -1.44411,-2.84952 -2.77655,-5.72293 -4.11504,-8.6003 -0.86566,-1.86092 -2.28542,-4.90207 -3.03292,-6.77153 -0.48577,-1.21486 -0.89666,-2.44526 -1.34499,-3.66788 -2.82615,-8.67401 -5.47238,-17.37883 -8.05489,-26.09355 -1.14882,-4.43441 -2.22535,-8.86319 -2.75899,-13.36687 -0.74486,-6.28625 -0.64764,-12.60836 -0.87594,-18.90941 -0.19658,-9.59671 -0.30571,-19.20496 -1.2216,-28.78259 0,-0.14498 -2.78453,-0.14498 -2.78453,0 z"
       id="path913"
       style="opacity:0.993548;fill:#42526e;fill-opacity:1;stroke-width:1.63298" />
    <path
       d="m 119.56081,197.4647 c -1.56885,-5.88586 -3.60896,-11.61244 -5.67482,-17.31285 -1.57546,-4.13699 -3.45414,-8.15485 -6.06239,-11.65863 -1.6986,-2.28182 -2.18732,-2.65831 -4.13896,-4.68183 -3.873862,-3.64054 -7.7211,-7.32156 -11.680245,-10.85599 -1.893689,-1.80206 -4.111181,-3.1616 -5.930601,-5.05126 -0.49969,-0.55973 -1.069754,-1.03952 -1.583358,-1.5821 -0.381917,-0.53956 -0.739027,-1.10917 -1.161826,-1.6375 -0.07747,-0.11723 -1.618407,1.06134 -1.540942,1.17856 v 0 c 0.483303,0.54268 0.931889,1.09543 1.323195,1.70118 0.213569,0.17697 -0.07707,-0.0744 0.287814,0.33518 0.375315,0.42133 0.765427,0.83328 1.140262,1.25805 0.366209,0.42688 0.77976,0.92355 1.173417,1.31293 1.468284,1.45235 3.138926,2.65817 4.59992,4.12065 2.463508,2.26045 4.832851,4.63236 7.271916,6.9225 0.692485,0.6502 1.409929,1.26921 2.101696,1.92028 0.707662,0.66602 1.397442,1.3537 2.096162,2.03056 1.80056,1.8292 2.37401,2.29182 3.94168,4.36404 2.51597,3.32571 4.26343,7.19639 5.71021,11.16817 2.04247,5.73008 4.05422,11.47738 6.31333,17.11379 0.0425,0.13796 1.85598,-0.50777 1.81354,-0.64573 z"
       id="path915"
       style="opacity:0.993548;fill:#42526e;fill-opacity:1;stroke-width:1.31604" />
    <path
       d="m 128.61028,226.3478 c 0.70133,-1.04463 1.19344,-1.76667 1.89436,-2.86852 1.77199,-2.78561 1.23615,-2.09652 3.24681,-5.02065 1.82739,-2.65762 2.57257,-3.6141 4.51392,-6.23514 3.06357,-3.98965 6.31723,-7.91644 10.27103,-11.06711 2.02737,-1.61555 2.76334,-1.94624 4.94336,-3.22127 1.90516,-0.9356 3.78183,-1.96329 5.76314,-2.73423 0.12845,-0.0694 -0.85317,-1.88596 -0.98162,-1.81655 v 0 c -2.25534,0.52571 -4.35604,1.55049 -6.42553,2.56545 -2.32987,1.33235 -3.18375,1.71505 -5.35278,3.41065 -4.12659,3.22587 -7.53275,7.26508 -10.6614,11.43364 -2.12662,2.96157 -2.51652,3.41142 -4.43857,6.44556 -1.61914,2.55598 -1.64578,2.71579 -3.00547,5.20134 -1.26894,2.31965 -0.62631,1.07299 -1.58193,2.98681 -0.0651,0.12832 1.74962,1.04834 1.81468,0.92002 z"
       id="path997"
       style="opacity:0.993548;fill:#42526e;fill-opacity:1;stroke-width:1.365" />
    <path
       d="m 137.94427,211.7307 c 2.36121,-5.28189 4.88594,-10.50879 8.20832,-15.26759 0.99011,-1.41817 2.08367,-2.76124 3.1255,-4.14186 6.23859,-7.49544 13.86562,-13.76384 22.53441,-18.26146 1.59868,-0.82944 3.27152,-1.50734 4.90728,-2.26102 8.46074,-3.39979 17.32126,-5.673 26.18843,-7.72823 9.62709,-2.13815 19.4498,-3.17893 29.20257,-4.56044 0.1964,-0.0721 -0.82279,-2.8496 -1.01919,-2.77753 v 0 c -4.27861,0.42299 -5.46999,0.50137 -9.90896,1.11976 -6.5488,0.91231 -13.04631,2.17298 -19.49243,3.63821 -9.06525,2.06571 -18.15842,4.21917 -26.8074,7.69324 -1.71768,0.78362 -3.47476,1.48606 -5.15304,2.35085 -9.02262,4.64917 -16.86248,11.24928 -23.15392,19.1943 -1.04407,1.45687 -2.1448,2.87475 -3.1322,4.37061 -3.28324,4.97397 -5.96251,10.44283 -7.47318,16.21915 -0.0291,0.13957 1.94468,0.55158 1.97381,0.41201 z"
       id="path999"
       style="opacity:0.993548;fill:#42526e;fill-opacity:1;stroke-width:1.365" />
    <path
       d="m 138.10935,211.51876 c 7.90651,0.61853 15.93764,0.3185 23.74026,-1.19025 2.66509,-0.51534 5.27625,-1.28367 7.91438,-1.92551 2.66833,-0.93577 5.37932,-1.75525 8.00499,-2.80731 10.05793,-4.03009 19.77075,-9.80213 27.95424,-16.97908 1.61872,-1.41963 3.09154,-3.00111 4.63731,-4.50167 1.1851,-1.35428 2.37021,-2.70856 3.55532,-4.06284 1.12437,-1.2715 2.25388,-2.53838 3.37312,-3.81451 2.52573,-2.87977 3.25995,-3.87878 5.89193,-6.50065 1.9121,-1.90475 2.96616,-2.74973 4.96136,-4.46099 1.67827,-1.29359 3.36257,-2.6704 4.54245,-4.47088 0.37822,-0.57715 0.71481,-1.23765 0.65556,-1.95986 -0.0249,-0.30353 -0.17936,-0.58148 -0.26904,-0.87222 -0.18952,-0.1962 -0.35559,-0.41881 -0.56857,-0.5886 -0.15687,-0.12506 -0.34611,-0.2032 -0.52834,-0.28587 -0.12482,-0.0567 -0.25829,-0.0916 -0.38955,-0.13055 -0.0305,-0.009 -0.11115,-0.0405 -0.0945,-0.0131 0.4573,0.75257 0.15897,-0.23492 0.38367,0.83256 0.0518,-0.0567 0.10355,-0.1133 0.15532,-0.16994 0.0671,-0.12364 -1.6611,-1.08374 -1.7282,-0.9601 v 0 c -0.0781,0.13638 -0.15625,0.27274 -0.23437,0.40911 -0.0275,0.31125 -0.1473,0.62817 -0.0827,0.93375 0.0825,0.38976 0.84393,1.04125 1.24445,0.72897 0.0338,-0.0378 0.0717,-0.15453 0.10141,-0.11339 0.11555,0.15978 -0.43958,0.82865 -0.51494,0.91924 -1.30445,1.56813 -2.96745,2.76919 -4.60992,3.94167 -2.26541,1.81928 -3.11102,2.42871 -5.29615,4.49619 -4.64593,4.3958 -8.54422,9.51168 -13.14438,13.95503 -1.54679,1.38083 -3.03359,2.83367 -4.64038,4.14249 -3.89797,3.1751 -8.29972,6.1756 -12.58387,8.76396 -2.40644,1.45389 -4.83874,2.87258 -7.34885,4.13434 -5.89396,2.96273 -8.87737,3.80049 -15.08398,6.00161 -2.53406,0.64738 -5.04515,1.39488 -7.60215,1.94211 -7.53662,1.61295 -15.23342,2.16083 -22.90407,2.60385 -0.13994,0.0363 0.3682,2.03871 0.50814,2.00236 z"
       id="path1003"
       style="opacity:0.993548;fill:#42526e;fill-opacity:1;stroke-width:1.37301" />
    <path
       d="m 115.15181,175.06429 c 1.24648,-5.09967 3.51537,-9.88181 6.43529,-14.2338 0.81774,-1.2188 1.73379,-2.36866 2.60069,-3.55299 2.75649,-3.37661 5.78741,-6.68812 9.62805,-8.85916 0.37323,-0.21098 0.78884,-0.33615 1.18326,-0.50423 0.13471,-0.0835 -1.04621,-1.98852 -1.18092,-1.90501 v 0 c -0.53433,0.18302 -1.0927,0.30701 -1.60301,0.54907 -4.29558,2.03755 -7.59633,5.6494 -10.58223,9.23483 -0.89732,1.25254 -1.85651,2.46299 -2.69196,3.75762 -2.9897,4.63291 -5.26659,9.83656 -5.84249,15.357 -0.0111,0.14519 2.04224,0.30186 2.05332,0.15667 z"
       id="path1005"
       style="opacity:0.993548;fill:#42526e;fill-opacity:1;stroke-width:1.365" />
    <path
       d="m 48.295062,94.647995 c 0.0039,2.2025 -0.05923,3.741412 0.333372,6.042875 1.324658,7.7652 4.056637,15.27579 7.141816,22.49203 1.198436,2.80314 2.558378,5.53445 3.837567,8.30167 1.335196,2.54108 2.604143,5.11809 4.005591,7.62324 4.351173,7.77791 9.405262,15.80105 16.467827,21.42194 1.126932,0.89689 2.394514,1.6012 3.591769,2.4018 2.75775,1.32008 4.850024,1.90577 7.88764,1.43779 1.310293,-0.20187 2.588969,-0.87482 3.78053,-1.42523 0.543978,-0.1397 0.858481,-0.26766 1.410462,-0.25147 0.04012,10e-4 -0.12918,0.0382 -0.100494,0.0663 0.08268,0.0809 0.212347,0.0921 0.315645,0.1442 1.03809,0.52316 -0.0264,0.046 1.280967,0.59994 0.776947,0.32085 1.506707,0.3775 2.332596,0.38407 0.10697,-0.0305 -0.32448,-1.5433 -0.43146,-1.51279 v 0 c 0.0777,0.009 0.30762,0.0507 0.23296,0.0275 -0.413238,-0.12863 -0.854573,-0.15333 -1.262616,-0.30268 -0.21276,-0.0693 -0.431059,-0.12352 -0.638279,-0.20798 -0.401431,-0.16363 -0.737954,-0.48093 -1.155922,-0.59592 -1.033941,-0.28445 -1.951844,-0.10928 -2.937433,0.23549 -1.277498,0.51121 -3.224122,1.28272 -4.594214,1.2044 -2.101871,-0.12015 -2.456768,-0.54282 -4.536509,-1.46633 -1.078257,-0.77926 -2.220497,-1.4769 -3.234772,-2.3378 -6.689283,-5.67773 -11.39122,-13.42692 -15.532269,-21.04632 -1.350529,-2.48494 -2.578944,-5.03432 -3.868415,-7.55148 -1.26868,-2.72355 -2.592882,-5.42192 -3.806044,-8.17064 -2.424655,-5.49368 -4.262983,-10.13972 -6.174753,-15.79569 -0.659572,-1.95134 -1.308188,-3.91045 -1.813211,-5.90738 -0.387292,-1.531402 -0.650079,-4.100149 -0.848667,-5.811495 0,-0.119055 -1.683684,-0.119055 -1.683684,0 z"
       id="path1105"
       style="opacity:0.993548;fill:#42526e;fill-opacity:1;stroke-width:1.365" />
    <path
       d="m 48.513776,95.310037 c 8.09368,8.071023 17.100044,15.146503 25.849709,22.475633 2.688407,2.25194 5.340432,4.54695 8.010649,6.82043 5.660382,5.11335 11.715041,9.91554 16.66922,15.7625 1.220996,1.44103 2.808016,3.51904 3.355776,5.46785 0.14834,0.52774 0.0491,1.09528 0.0737,1.64292 -0.35826,2.05826 -1.49168,3.87499 -2.03317,5.87318 -0.37557,1.38595 -0.31792,1.77351 -0.3921,3.2073 0.0908,2.13724 0.2784,4.36377 1.15967,6.34368 0.0327,0.10619 1.53438,-0.35567 1.50173,-0.46186 v 0 c -0.52749,-1.89148 -0.76904,-3.85707 -0.86065,-5.81468 0.0394,-1.09671 -0.008,-1.69211 0.29274,-2.75007 0.12806,-0.45067 0.33408,-0.87547 0.5068,-1.31098 0.66486,-1.67648 1.39854,-3.33367 1.7021,-5.12735 -0.009,-0.74314 0.11707,-1.50023 -0.0265,-2.22943 -0.77098,-3.91632 -4.331956,-8.08412 -6.856412,-10.87682 -4.379159,-4.84448 -7.558702,-7.53354 -12.47561,-12.05684 -2.690243,-2.28479 -5.348433,-4.60786 -8.070728,-6.85436 -8.834829,-7.29069 -18.063371,-14.07323 -27.061443,-21.154749 -0.0738,-0.09514 -1.419259,0.948507 -1.345461,1.043646 z"
       id="path1109"
       style="opacity:0.993548;fill:#42526e;fill-opacity:1;stroke-width:1.365" />
    <path
       d="m 115.70979,136.68541 c -0.0919,-1.85201 -0.10724,-3.7521 -0.84803,-5.47648 -0.36723,-0.6786 -1.08318,-1.54851 -2.02152,-1.0339 -0.49372,0.27077 -0.46775,1.02447 -0.51003,1.46287 -0.0215,1.45604 0.17918,2.90155 0.32182,4.34733 0.0686,0.53746 -0.004,1.07405 -0.0425,1.61018 -0.006,0.11521 -0.0114,0.23041 -0.017,0.34561 -0.004,0.11127 1.56995,0.16228 1.57355,0.051 v 0 c 0.003,-0.10525 0.006,-0.2105 0.008,-0.31575 0.03,-0.59576 0.10693,-1.18995 0.0778,-1.7876 -0.0649,-1.4006 -0.221,-2.79445 -0.30883,-4.19359 -0.007,-0.12713 0.0813,-0.30686 -0.022,-0.38139 -0.086,-0.0621 -0.16156,0.16262 -0.26711,0.17269 -2.03279,0.19387 -0.61091,-0.18534 -0.51369,-0.0683 0.0803,0.0967 0.12274,0.21925 0.18412,0.32888 0.64788,1.55753 0.47821,3.29737 0.77491,4.93839 0,0.11385 1.61006,0.11385 1.61006,0 z"
       id="path1111"
       style="opacity:0.993548;fill:#42526e;fill-opacity:1;stroke-width:1.365" />
    <path
       d="m 112.43792,131.53965 c 0.35726,1.28638 0.17141,0.60898 0.55617,2.03259 0.0286,0.11932 1.71601,-0.28457 1.68745,-0.40389 v 0 c -0.44888,-1.47854 -0.21226,-0.7768 -0.69974,-2.10859 -0.0339,-0.10917 -1.57781,0.37072 -1.54388,0.47989 z"
       id="path1113"
       style="opacity:0.993548;fill:#42526e;fill-opacity:1;stroke-width:1.365" />
    <path
       d="m 140.72016,254.95439 c -0.95168,-0.97718 -2.03476,-1.83065 -3.19345,-2.54979 -0.2179,-0.13523 -0.44411,-0.25659 -0.66616,-0.38489 -0.31903,-0.12259 -0.67376,-0.40496 -1.0429,-0.39367 -0.17844,0.005 -0.31814,0.0768 -0.48607,0.10892 -0.0526,-0.004 -0.10551,-0.003 -0.15769,-0.0108 -0.31366,-0.0438 -0.63094,-0.1693 -0.92597,-0.27406 -0.30603,-0.10866 -0.61016,-0.22264 -0.91611,-0.33154 -0.6338,-0.19555 -1.14985,-0.59118 -1.66224,-0.9946 -0.31235,-0.28161 -0.64361,-0.53197 -1.00389,-0.74776 -0.27128,-0.13447 -0.54963,-0.25923 -0.836,-0.35942 -0.42794,-0.11273 -0.8099,-0.33381 -1.2006,-0.53365 -0.28477,-0.1621 -0.55621,-0.33588 -0.85567,-0.47083 -0.35332,-0.22821 -0.72537,-0.42396 -1.10215,-0.61009 -0.31187,-0.18864 -0.63331,-0.36039 -0.95015,-0.53996 -0.13669,-0.13892 -0.29778,-0.21721 -0.48045,-0.27808 -0.11672,-0.0268 -0.2132,-0.089 -0.31251,-0.15222 -0.021,-0.0187 -0.28525,0.27823 -0.26426,0.29692 v 0 c 0.11902,0.0757 0.2336,0.16201 0.37351,0.19524 0.17165,0.0646 0.29733,0.0735 0.41811,0.23287 0.30581,0.21707 0.64837,0.38459 0.96097,0.5924 0.38232,0.18476 0.77441,0.35515 1.12508,0.5973 0.12669,0.0568 0.2644,0.10354 0.38255,0.17759 0.15149,0.0949 0.28531,0.21893 0.45071,0.29219 0.40547,0.2113 0.80015,0.44896 1.24883,0.55946 0.26636,0.0834 0.51988,0.19214 0.77688,0.29698 0.33587,0.22892 0.65301,0.47587 0.95258,0.75175 0.54075,0.42444 1.08105,0.85827 1.73683,1.09415 0.45943,0.16975 0.91684,0.34746 1.38861,0.48097 0.13196,0.0373 0.26354,0.0794 0.39917,0.0997 0.30976,0.0463 0.37042,0.0266 0.63259,-0.004 0.0397,-0.0121 0.22515,-0.0671 0.22731,-0.0729 0.009,-0.0229 -0.0962,-0.0166 -0.0719,-0.0144 0.31688,0.0284 0.58177,0.28188 0.85626,0.40754 0.53171,0.33554 0.86642,0.53945 1.39697,0.90867 0.85084,0.59212 1.66915,1.23021 2.47169,1.88575 0.0181,0.0233 0.34758,-0.2323 0.32951,-0.2556 z"
       id="path1117"
       style="opacity:0.993548;fill:#42526e;fill-opacity:1;stroke-width:1.365" />
    <path
       d="m 140.24319,255.29129 c -0.6953,-0.4884 -1.37306,-1.00092 -2.0702,-1.48675 -0.47492,-0.33673 -0.94326,-0.68238 -1.46715,-0.93928 -0.3199,-0.11955 -0.61213,-0.29759 -0.93001,-0.42146 -0.19548,-0.0762 -0.39486,-0.14203 -0.59105,-0.21637 -0.38378,-0.14153 -0.72679,-0.34721 -1.06609,-0.57021 -0.34356,-0.22354 -0.72023,-0.39126 -1.08771,-0.57155 -0.42881,-0.19238 -0.83721,-0.42868 -1.23405,-0.67987 -0.30404,-0.21742 -0.62134,-0.40192 -0.95679,-0.56542 -0.30209,-0.12996 -0.58003,-0.30437 -0.86793,-0.4615 -0.23605,-0.12362 -0.49348,-0.19716 -0.73723,-0.30387 -0.0384,-0.0201 -0.0785,-0.0371 -0.11511,-0.0602 -0.0833,-0.0527 -0.15605,-0.12062 -0.23602,-0.17831 -0.15774,-0.11382 -0.31934,-0.20244 -0.4937,-0.28776 -0.29015,-0.13584 -0.5681,-0.29228 -0.8662,-0.41103 -0.15688,-0.0821 -0.31128,-0.1696 -0.44959,-0.28066 -0.11719,-0.0831 -0.25081,-0.14058 -0.37665,-0.21004 -0.0228,-0.0175 -0.27083,0.30418 -0.24808,0.32172 v 0 c 0.11089,0.0553 0.22121,0.10985 0.33574,0.15152 0.16193,0.13733 0.33434,0.25677 0.52132,0.35868 0.29223,0.11402 0.56327,0.26549 0.8436,0.40466 0.15656,0.0708 0.30167,0.14499 0.44385,0.24231 0.0957,0.0655 0.18148,0.14491 0.27837,0.20861 0.0413,0.0271 0.0873,0.0462 0.13091,0.0693 0.23365,0.112 0.48173,0.18342 0.71713,0.28966 0.29127,0.16256 0.56676,0.35212 0.87647,0.47994 0.14209,0.0686 0.30163,0.12374 0.43564,0.20769 0.16654,0.10431 0.30831,0.24645 0.48142,0.34148 0.39422,0.25398 0.0409,0.0348 0.42678,0.25175 0.27849,0.15657 0.53997,0.34386 0.84273,0.45478 0.3594,0.16549 0.72654,0.32262 1.05923,0.53738 0.16122,0.0996 0.31198,0.2163 0.47611,0.31095 0.2047,0.11805 0.42548,0.20774 0.63345,0.31939 0.27942,0.11037 0.57196,0.18861 0.84745,0.30787 0.1515,0.0656 0.29483,0.1489 0.44554,0.21629 0.0692,0.0309 0.1398,0.0587 0.20969,0.0881 0.50639,0.24194 0.95877,0.57367 1.39787,0.92107 0.69215,0.51824 1.38282,1.04229 2.13473,1.47241 0.022,0.0181 0.27754,-0.29318 0.25553,-0.31124 z"
       id="path1119"
       style="opacity:0.993548;fill:#42526e;fill-opacity:1;stroke-width:1.365" />
    <path
       d="m 126.0474,153.32148 c 1.29993,-4.9121 3.41678,-9.59531 5.96326,-13.98475 0.78328,-1.35016 1.65617,-2.64629 2.48425,-3.96943 2.54451,-3.63038 5.40218,-7.0643 8.8183,-9.91349 1.82915,-1.5256 4.55677,-3.37875 6.61293,-4.62387 0.94927,-0.57484 1.93871,-1.08056 2.90806,-1.62085 2.54753,-1.28877 1.39969,-0.79804 3.40014,-1.56974 0.10982,-0.0625 -0.77355,-1.61563 -0.88338,-1.55317 v 0 c -2.33352,0.65171 -1.03432,0.21536 -3.85373,1.43301 -2.81307,1.49042 -3.77083,1.89469 -6.47271,3.78697 -5.01452,3.51198 -9.27375,7.89978 -12.68476,12.98439 -0.83233,1.37538 -1.71744,2.72019 -2.49701,4.12616 -2.52331,4.55087 -4.58901,9.47455 -5.40994,14.63457 -0.0191,0.11417 1.59548,0.38437 1.61459,0.2702 z"
       id="path1147"
       style="opacity:0.993548;fill:#42526e;fill-opacity:1;stroke-width:1.365" />
    <path
       d="m 155.49161,116.86784 c -1.85857,5.53937 -3.63116,11.11312 -5.87847,16.51292 -0.67822,1.62959 -1.43753,3.22423 -2.1563,4.83635 -2.61741,5.12961 -5.73784,10.02559 -11.30091,12.3066 -2.50913,1.02881 -3.86264,0.93765 -6.49472,1.14922 -3.15227,-0.10721 -1.59644,0.0183 -4.66813,-0.36865 -0.12872,-0.0521 -0.86552,1.76825 -0.7368,1.82035 v 0 c 3.64189,0.69839 1.61562,0.44176 6.09907,0.58832 3.01284,-0.30607 4.33865,-0.21693 7.20655,-1.44788 4.12294,-1.76962 7.29192,-4.96042 9.72194,-8.6609 0.94938,-1.44575 1.69545,-3.01522 2.54317,-4.52282 0.72462,-1.65285 1.50222,-3.28348 2.17385,-4.95856 2.18654,-5.45331 3.75635,-11.14182 5.08185,-16.85744 0.0281,-0.11251 -1.56299,-0.51002 -1.5911,-0.39751 z"
       id="path1165"
       style="opacity:0.993548;fill:#42526e;fill-opacity:1;stroke-width:1.365" />
    <path
       d="m 164.57526,281.27785 c -0.29546,-0.60465 -0.68444,-1.15747 -1.04543,-1.72392 -0.21806,-0.29435 -0.37803,-0.62674 -0.59398,-0.92162 -0.19857,-0.24022 -0.39309,-0.48252 -0.61418,-0.70266 -0.23562,-0.26418 -0.46618,-0.53287 -0.71543,-0.78443 -0.1877,-0.17831 -0.36624,-0.36335 -0.53655,-0.55814 -0.09,-0.0936 -0.16472,-0.20095 -0.2373,-0.30832 -0.007,-0.009 -0.0824,-0.11306 -0.10446,-0.10784 -0.0852,0.0201 -0.18512,0.0457 -0.23482,0.11787 -0.0267,0.0387 0.21801,0.51551 0.23377,0.5471 0.21085,0.46641 0.50519,0.8826 0.82788,1.27664 0.11764,0.16418 0.23736,0.32618 0.36815,0.48001 0.18057,0.1582 0.33254,0.34452 0.49646,0.51906 0.12803,0.17971 0.31185,0.30596 0.45766,0.46757 0.0211,0.0313 0.044,0.0615 0.0634,0.094 0.0228,0.0382 0.12314,0.23413 0.13988,0.26162 0.11739,0.19278 0.25799,0.37262 0.39454,0.55184 0.19884,0.24281 0.36827,0.5166 0.61324,0.71697 0.0921,0.0744 0.18577,0.14383 0.25538,0.24085 -0.0619,-0.0905 0.0593,0.0984 0.17398,-0.15983 0.0168,-0.0378 -0.0536,-0.063 -0.0792,-0.0955 -0.16302,-0.20738 -0.32569,-0.41453 -0.49133,-0.61992 -0.21178,-0.24154 -0.42549,-0.48154 -0.64841,-0.71292 -0.11565,-0.12004 -0.22558,-0.2318 -0.32459,-0.36558 -0.0705,-0.1371 -0.10025,-0.28522 -0.17031,-0.42296 -0.1408,-0.24416 -0.30424,-0.4744 -0.44216,-0.72012 -0.10706,-0.18499 -0.22255,-0.36089 -0.38444,-0.50215 -0.0931,-0.0705 -0.16753,-0.15864 -0.23261,-0.25485 -0.12687,-0.13096 -0.2275,-0.28159 -0.34001,-0.42439 -0.0859,-0.1071 -0.241,-0.36401 -0.28783,0.0404 -0.005,0.0468 0.0691,0.0641 0.10371,0.0962 0.27006,0.29718 0.50014,0.64032 0.71105,0.9819 0.0741,0.18952 0.13997,0.33909 0.27747,0.49273 0.0688,0.0903 0.18174,0.12319 0.26532,0.19434 0.0403,0.0343 0.0601,0.066 0.0922,0.10861 0.10855,0.19516 0.23767,0.36724 0.41352,0.50625 0.0228,0.0111 0.0495,0.0503 0.0685,0.0334 0.0749,-0.0667 0.14171,-0.15142 0.17146,-0.24717 0.0134,-0.0431 -0.036,-0.0828 -0.0564,-0.12306 -0.069,-0.13623 -0.1585,-0.25466 -0.24661,-0.37865 -0.0748,-0.13155 -0.16549,-0.25582 -0.23477,-0.39028 -0.0436,-0.14023 -0.0953,-0.27316 -0.18088,-0.39336 -0.0396,-0.0645 0.0369,0.0543 -0.0533,0.15446 -0.0249,0.0277 -0.0932,-0.0222 -0.11132,0.0103 -0.016,0.0286 0.0436,0.049 0.0638,0.0748 0.0884,0.11232 0.11023,0.1509 0.19319,0.27533 0.20353,0.3043 0.33669,0.64542 0.49867,0.97158 0.10034,0.19595 0.24166,0.36025 0.39288,0.51779 0.14453,0.1533 0.32889,0.25468 0.4647,0.41624 0.12811,0.17653 0.216,0.37486 0.30384,0.57319 0.005,0.063 0.0603,0.11459 0.0684,0.17608 0.001,0.009 -2.6e-4,0.018 -5.3e-4,0.0272 0.004,0.022 0.008,0.0437 0.0123,0.0656 0.0223,0.12877 0.0645,0.24717 0.15634,0.34269 0.0112,0.0159 0.23438,-0.14283 0.22316,-0.15859 v 0 c -0.0118,-0.014 -0.029,-0.0233 -0.0397,-0.0383 -0.0409,-0.0572 -0.0486,-0.12803 -0.0667,-0.19372 -0.0263,-0.10571 -0.0423,-0.21215 -0.0853,-0.31375 -0.0894,-0.22415 -0.18605,-0.44603 -0.33024,-0.64135 -0.083,-0.0984 -0.0844,-0.10959 -0.18063,-0.18864 -0.0978,-0.0804 -0.2141,-0.13933 -0.29687,-0.23752 -0.13311,-0.13915 -0.26651,-0.27668 -0.34864,-0.45408 -0.15707,-0.34282 -0.28904,-0.69905 -0.50576,-1.01121 -0.0779,-0.11081 -0.33785,-0.52938 -0.52696,-0.45982 -0.0626,0.023 -0.0748,0.1125 -0.0949,0.17611 -0.006,0.0185 0.0149,0.0359 0.0224,0.0538 0.0787,0.11012 0.11798,0.23453 0.16594,0.36047 0.0719,0.14586 0.15741,0.28572 0.23533,0.42891 0.0791,0.11481 0.1628,0.22379 0.23217,0.34499 0.0203,0.0355 0.0177,0.10417 0.0584,0.10774 0.0811,0.007 0.33343,-0.10453 0.23119,-0.0785 -0.16278,-0.11866 -0.27048,-0.28413 -0.37234,-0.45489 -0.065,-0.0878 -0.12562,-0.16473 -0.21914,-0.22413 -0.0137,-0.009 -0.0885,-0.0428 -0.10567,-0.055 -0.0178,-0.0127 -0.0328,-0.0286 -0.0493,-0.043 -0.13321,-0.13763 -0.17505,-0.27238 -0.23864,-0.45119 -0.2009,-0.3823 -0.4483,-0.74737 -0.75335,-1.0541 -0.18528,-0.15362 -0.14714,-0.18806 -0.44598,-0.0143 -0.0259,0.0151 0.15447,0.20588 0.164,0.22696 0.10973,0.13536 0.19923,0.28742 0.33548,0.3995 0.0738,0.11811 0.16167,0.22518 0.26895,0.31488 0.14399,0.11499 0.23828,0.27403 0.32822,0.43246 0.13316,0.24921 0.29052,0.48347 0.4473,0.71832 0.0251,0.0413 0.0563,0.0864 0.072,0.13327 0.0343,0.10311 0.0473,0.21455 0.10444,0.31001 0.25683,0.42024 0.64351,0.74417 0.95408,1.12263 0.0861,0.099 0.29003,0.33287 0.38366,0.44251 0.0481,0.0564 0.0932,0.11536 0.14325,0.17 0.039,0.0425 0.0662,0.11454 0.12352,0.12126 0.097,0.0114 0.20242,-0.0193 0.28374,-0.0734 0.0292,-0.0196 -0.0117,-0.0692 -0.0176,-0.10382 -0.08,-0.11837 -0.18674,-0.20248 -0.29462,-0.29377 -0.22817,-0.18759 -0.35618,-0.47355 -0.55511,-0.68839 -0.12856,-0.16875 -0.2703,-0.33496 -0.38723,-0.51202 -0.0147,-0.0222 -0.14123,-0.25614 -0.15674,-0.28117 -0.0257,-0.0415 -0.0556,-0.0802 -0.0834,-0.12023 -0.14738,-0.16259 -0.33151,-0.28824 -0.4581,-0.4712 -0.16093,-0.17528 -0.30932,-0.36806 -0.50303,-0.50882 -0.13644,-0.14332 -0.21794,-0.32734 -0.34079,-0.48191 -0.30276,-0.3888 -0.57837,-0.79542 -0.79545,-1.23962 -0.0407,-0.0717 -0.0816,-0.1432 -0.12208,-0.21501 -0.0295,-0.0523 -0.053,-0.10834 -0.0877,-0.15737 -0.009,-0.0127 -0.0248,-0.0254 -0.0402,-0.0236 -0.0776,0.009 -0.1523,0.0353 -0.22778,0.0554 -0.005,0 0.009,0 0.0141,0.003 0.0115,0.0132 0.023,0.0267 0.0346,0.04 0.0761,0.11497 0.15882,0.22723 0.24516,0.33449 0.16701,0.20593 0.34957,0.39431 0.5385,0.58026 0.24877,0.25387 0.47741,0.52662 0.71918,0.78708 0.21665,0.20852 0.39838,0.44598 0.59779,0.67016 0.22204,0.28014 0.3293,0.63392 0.54555,0.92052 0.3498,0.57605 0.7365,1.12783 1.08643,1.70378 0.009,0.0183 0.26583,-0.11197 0.25663,-0.1301 z"
       id="path1177"
       style="opacity:0.993548;fill:#42526e;fill-opacity:1;stroke-width:1.365" />
    <path
       style="opacity:0.993548;fill:#42526e;fill-opacity:1;stroke-width:1.365"
       id="path893-5"
       d="m 271.48794,200.71871 c 1.37511,6.12802 3.43018,12.10783 5.87056,17.89055 1.03108,2.44323 2.08574,4.87982 3.27067,7.25226 1.31262,2.62811 2.81112,5.15919 4.21668,7.73879 5.18543,8.43154 11.37506,16.23805 18.85866,22.76112 2.73748,2.38614 5.6237,4.60821 8.60691,6.67894 7.42211,5.1519 9.99416,6.03838 17.94675,9.90634 7.65633,3.27728 15.66486,5.65403 23.92421,6.78696 3.0839,0.42302 6.91722,0.68614 10.10546,0.32631 0.95872,-0.1082 1.88458,-0.41446 2.82687,-0.62169 0.26004,-0.35805 0.78791,-0.63169 0.78013,-1.07414 -0.0114,-0.65016 -0.39994,-1.27767 -0.83003,-1.76536 -0.34116,-0.38685 -2.8497,-1.12003 -3.2129,-0.29259 -0.23522,0.5359 0.20448,1.15251 0.30672,1.72876 0.30663,0.16033 0.61325,0.32066 0.91988,0.48098 0.12419,0.0804 1.26086,-1.67594 1.13667,-1.75632 v 0 c -0.22279,-0.054 -0.44558,-0.10792 -0.66837,-0.16188 -1.05838,2.86691 0.30854,0.26442 -1.23858,1.28751 -0.15504,0.10252 0.36912,0.0445 0.5529,0.0724 0.24176,0.0366 0.50364,0.22792 0.72351,0.12094 0.0814,-0.0396 0.43613,-0.56729 0.61202,-0.82752 -3.48959,0.24871 -7.1425,-0.28031 -10.55874,-0.8661 -7.87935,-1.35109 -15.6537,-3.34019 -22.8977,-6.8002 -2.83789,-1.41768 -5.74283,-2.70842 -8.51367,-4.25306 -5.53097,-3.0833 -12.34182,-7.54195 -17.1864,-11.61956 -7.34884,-6.18541 -13.38071,-13.7454 -18.60695,-21.75437 -1.43531,-2.48526 -2.94774,-4.92755 -4.30594,-7.45577 -4.17403,-7.76976 -7.43422,-15.98253 -10.54169,-24.22112 -0.031,-0.14832 -2.12859,0.28953 -2.09763,0.43785 z" />
    <path
       style="opacity:0.993548;fill:#42526e;fill-opacity:1;stroke-width:1.365"
       id="path895-0"
       d="m 272.23646,200.69347 c 0.83355,0.29227 1.66404,0.59342 2.50066,0.87681 3.20638,1.0861 6.50181,2.08522 9.63891,3.3541 5.16081,2.08741 10.83562,4.80011 15.72763,7.37263 2.90109,1.52558 5.73227,3.18055 8.59841,4.77082 9.46388,5.61164 18.52686,11.90915 26.31937,19.72012 3.9153,3.92458 4.80195,5.24642 8.28102,9.5427 5.38485,7.03009 10.45988,14.2945 15.97937,21.22082 1.05235,1.40948 2.42501,2.62957 3.30021,4.17251 0.22831,0.40251 0.38196,0.86074 0.54341,1.29209 0.52114,1.72203 1.40367,3.27549 2.3753,4.77602 0.44773,0.50472 0.81707,1.03463 1.09656,1.64504 0.0507,0.13254 1.92518,-0.58464 1.87447,-0.71719 v 0 c -0.30978,-0.65919 -0.64326,-1.30574 -1.11093,-1.87056 -0.85187,-1.41503 -1.77243,-2.80699 -2.25274,-4.40448 -0.21851,-0.67292 -0.30348,-1.01233 -0.63395,-1.6689 -0.81708,-1.62341 -2.11317,-2.95425 -3.05277,-4.50021 -2.82726,-4.07501 -5.53707,-8.23311 -8.38991,-12.29038 -1.08341,-1.54082 -2.20718,-3.05287 -3.31182,-4.57855 -1.18527,-1.63701 -2.37194,-3.27301 -3.55791,-4.90952 -2.63995,-3.28561 -5.43337,-6.89881 -8.33716,-9.96197 -7.75401,-8.1796 -16.83644,-14.99349 -26.48051,-20.77815 -2.94091,-1.60209 -5.83048,-3.30224 -8.82274,-4.80626 -9.29416,-4.6716 -19.12192,-8.27043 -29.3552,-10.20468 -0.13769,-0.0657 -1.06737,1.88145 -0.92968,1.94719 z" />
    <path
       style="opacity:0.993548;fill:#42526e;fill-opacity:1;stroke-width:1.35086"
       id="path897-4"
       d="m 323.06499,246.91521 c 0.46653,0.61614 0.89926,1.25827 1.3996,1.84842 1.95368,2.30439 4.56572,4.95371 6.70973,6.96948 4.18664,3.93621 8.22873,7.37905 12.85365,10.88029 2.71963,2.05887 5.55729,3.9637 8.33593,5.94555 6.31161,4.08058 9.07714,6.00662 15.46181,9.63514 1.91659,1.08923 3.89239,2.07531 5.84017,3.1101 3.52957,1.87513 7.0481,3.73921 10.66123,5.45406 1.2552,0.67415 2.66671,1.03575 3.9185,1.71627 0.9061,0.4926 1.74771,1.16684 2.5753,1.76922 1.8561,1.3641 3.81976,2.58252 5.87101,3.64287 0.33923,0.14071 0.62863,0.34255 0.91475,0.56281 0.0906,0.10327 1.58185,-1.15182 1.49124,-1.25508 v 0 c -0.35085,-0.33336 -0.69525,-0.67503 -1.15021,-0.87405 -1.96119,-1.05335 -3.65605,-2.53243 -5.59262,-3.63094 -0.38319,-0.25318 -0.76638,-0.50634 -1.14958,-0.75951 -0.28759,-0.17294 -0.58288,-0.33416 -0.8628,-0.51879 -0.26786,-0.17667 -0.51095,-0.38769 -0.779,-0.56407 -0.86148,-0.56691 -1.06725,-0.59634 -2.03263,-1.13088 -0.5465,-0.30261 -1.0829,-0.62239 -1.62435,-0.93357 -3.38459,-1.95835 -6.70828,-4.00977 -10.03597,-6.05966 -6.92129,-4.2636 -13.77583,-8.62944 -20.49987,-13.18768 -5.12332,-3.51164 -11.03242,-7.46958 -16.0027,-11.22631 -1.94227,-1.46804 -3.81244,-3.02597 -5.68534,-4.57807 -1.67321,-1.38662 -5.3831,-4.60735 -7.18993,-6.30445 -0.56928,-0.5347 -1.1006,-1.10687 -1.6509,-1.66032 -0.083,-0.12306 -1.85999,1.02611 -1.77702,1.14917 z" />
    <path
       inkscape:export-ydpi="17.415695"
       inkscape:export-xdpi="17.415695"
       inkscape:export-filename="C:\Users\igora\path1305.png"
       d="m 380.74782,107.34543 c 2.52178,2.26805 4.94502,4.62974 7.56531,6.80414 10.313,8.55808 18.5905,14.33782 29.70443,22.48612 16.94714,12.425 25.46845,18.85926 43.00294,30.87382 6.67243,4.57192 13.49145,8.96547 20.23717,13.44819 5.23156,3.23818 10.46313,6.47637 15.69469,9.71456 0.5856,0.56835 9.45546,-6.93641 8.86985,-7.50475 v 0 c -4.55437,-3.88313 -9.10874,-7.76626 -13.6631,-11.64939 -6.42416,-4.83414 -12.70126,-9.83344 -19.27249,-14.50242 -16.51741,-11.73592 -27.89323,-18.74349 -45.29699,-29.19383 -10.1512,-6.09542 -22.67098,-13.35062 -33.3937,-18.9918 -3.17276,-1.66918 -6.44939,-3.1707 -9.67409,-4.75605 -0.25526,-0.24183 -4.02928,3.02959 -3.77402,3.27141 z"
       id="path1305"
       style="opacity:0.993548;fill:#42526e;fill-opacity:1;stroke-width:1.11714" />
    <path
       inkscape:export-ydpi="17.415695"
       inkscape:export-xdpi="17.415695"
       inkscape:export-filename="C:\Users\igora\path1305.png"
       d="m 464.18412,155.92836 c 0.31955,-0.97473 0.682,-1.93358 0.95866,-2.92415 1.18317,-4.23642 2.03831,-8.3526 2.81286,-12.73584 1.18746,-6.72023 2.03799,-12.82365 2.69637,-19.67526 0.32995,-3.43348 0.51723,-6.8897 0.77589,-10.33456 0.31033,-7.51013 0.51146,-10.2101 0.49763,-17.473454 -0.004,-2.257632 -0.0991,-6.95111 -0.37176,-9.564921 -0.0547,-0.5247 -0.20436,-1.042276 -0.30651,-1.563409 0.0407,-0.311986 -4.43215,-1.221627 -4.4728,-0.909619 v 0 c -0.23023,0.522323 -0.53097,1.01463 -0.69069,1.566981 -0.75229,2.601911 -1.35267,6.884999 -1.65791,9.337783 -0.74132,5.956547 -1.11094,11.136129 -1.62134,17.181589 -1.19131,15.31885 -2.51448,30.63192 -2.89547,46.05856 -0.0507,0.29732 4.22441,1.33363 4.27512,1.0363 z"
       id="path1307"
       style="opacity:0.993548;fill:#42526e;fill-opacity:1;stroke-width:1.35373" />
    <path
       inkscape:export-ydpi="17.415695"
       inkscape:export-xdpi="17.415695"
       inkscape:export-filename="C:\Users\igora\path1305.png"
       d="m 443.02885,142.20082 c -13.66571,0.12236 -27.34304,0.37404 -41.03149,1.07165 -4.53475,0.23111 -9.06867,0.55006 -13.60302,0.8251 -3.92798,0.31739 -7.85593,0.63476 -11.78388,0.95212 -0.71827,-0.0986 -3.14487,7.99349 -2.42656,8.09209 v 0 c 3.88895,-0.0805 7.77795,-0.16095 11.66693,-0.24142 4.5551,-0.25866 9.11188,-0.4456 13.6653,-0.77596 4.63205,-0.33605 9.26213,-0.74685 13.88563,-1.22288 9.66216,-0.9948 19.43216,-2.19961 28.83486,-4.57423 0.3683,0.0255 1.16053,-4.101 0.79223,-4.12647 z"
       id="path1309"
       style="opacity:0.993548;fill:#42526e;fill-opacity:1;stroke-width:1.57059" />
    <path
       inkscape:export-ydpi="17.415695"
       inkscape:export-xdpi="17.415695"
       inkscape:export-filename="C:\Users\igora\path1305.png"
       d="m 431.82034,132.46114 c 0.12991,-1.01961 0.28619,-2.0394 0.38973,-3.05879 1.24288,-12.2358 1.27029,-24.60573 1.29259,-36.652186 -0.0969,-8.188157 -0.005,-4.413463 -0.23702,-11.335271 0.0132,-0.499867 -4.98667,0.437589 -4.99995,0.937482 v 0 c -0.67838,7.215515 -0.37571,3.303058 -0.83373,11.730585 -0.0617,2.678693 -0.15134,5.363101 -0.18513,8.03608 -0.13163,10.41126 0.088,20.76897 0.80629,30.92994 -0.0159,0.37805 3.75123,-0.20976 3.76722,-0.58784 z"
       id="path1311"
       style="opacity:0.993548;fill:#42526e;fill-opacity:1;stroke-width:1.45025" />
    <path
       inkscape:export-ydpi="17.415695"
       inkscape:export-xdpi="17.415695"
       inkscape:export-filename="C:\Users\igora\path1305.png"
       d="m 472.74429,159.00444 c -1.02637,0.16355 -2.04956,0.29453 -3.0791,0.49054 -11.42555,2.17519 -22.94178,5.23339 -34.30331,8.302 -25.6238,6.92067 -19.64449,5.33644 -45.62179,13.49982 -1.22982,0.20997 -2.43808,11.39182 -1.20826,11.18183 v 0 c 7.75234,-2.54523 15.53313,-5.00324 23.25699,-7.63568 7.47594,-2.54795 14.8885,-5.27001 22.33365,-7.9025 11.54227,-4.08118 23.13045,-8.10449 34.54745,-12.49471 0.85721,-0.33001 1.69335,-0.70026 2.54007,-1.05035 0.45734,-0.03 1.99165,-4.42087 1.53429,-4.39096 z"
       id="path1313"
       style="opacity:0.993548;fill:#42526e;fill-opacity:1;stroke-width:1.79633" />
    <path
       inkscape:export-ydpi="5.3240128"
       inkscape:export-xdpi="5.3240128"
       inkscape:export-filename="C:\Users\igora\path1305.png"
       d="m 649.80764,71.473409 c 3.54299,7.115931 8.11516,13.247683 12.65419,19.209618 10.53581,13.838593 8.81125,11.350823 20.96514,25.309893 12.75444,13.40429 14.0642,15.15487 27.31168,27.59078 4.43063,4.15917 8.8807,8.28819 13.44293,12.18393 5.73525,4.8974 13.55108,11.07498 20.07653,14.72662 1.56592,0.87629 3.25284,1.29858 4.87923,1.94788 0.25394,0.25482 2.94544,-4.55348 2.69151,-4.8083 v 0 c -1.1387,-1.21508 -2.25655,-2.46601 -3.41607,-3.64522 -10.08306,-10.25426 -20.56287,-19.77183 -30.8427,-29.66118 -4.57042,-4.39676 -9.08528,-8.89613 -13.6382,-13.32533 -4.61473,-4.48934 -9.24313,-8.95347 -13.86467,-13.43022 -4.21991,-4.09644 -8.42918,-8.212599 -12.65973,-12.289339 -3.43603,-3.311114 -6.93692,-6.502141 -10.3398,-9.874049 -2.24157,-2.221148 -4.39887,-4.590879 -6.58958,-6.901187 -2.83461,-2.989359 -5.66497,-5.992198 -8.42145,-9.110985 -0.10968,-0.212934 -2.35869,1.864154 -2.24901,2.077089 z"
       id="path1385"
       style="opacity:0.993548;fill:#42526e;fill-opacity:1;stroke-width:1.16781" />
    <path
       inkscape:export-ydpi="5.3240128"
       inkscape:export-xdpi="5.3240128"
       inkscape:export-filename="C:\Users\igora\path1305.png"
       d="m 690.27687,58.837797 c -1.61589,7.668148 -2.17707,15.48962 -2.79506,23.264381 -0.59981,7.975472 -0.72196,16.01474 0.30729,23.969432 0.53388,4.12599 1.38615,8.21631 2.90846,12.14414 0.50615,1.30597 1.24862,2.5265 1.87293,3.78976 0.64741,0.82049 1.20481,1.70601 1.94223,2.46151 1.62557,1.66546 3.88771,2.64788 6.34045,1.72582 0.52086,-0.1958 0.75745,-0.75744 1.13617,-1.13616 0.14248,-0.20186 -3.00641,-2.02882 -3.14891,-1.82696 v 0 c 0.4314,-0.0499 0.50927,-0.0729 1.16742,0.17338 0.14782,0.0553 -0.34621,0.0947 -0.47945,0.0145 -1.03619,-0.62337 -1.47609,-1.88454 -1.98284,-2.79164 -0.3537,-1.14061 -0.78274,-2.2642 -1.06111,-3.42183 -0.91607,-3.80965 -1.36734,-7.57952 -1.68503,-11.47217 -0.63571,-7.78922 -0.62854,-15.608962 -0.85429,-23.411848 0.14172,-7.823588 0.40709,-15.664888 -0.0732,-23.482363 0,-0.230455 -3.59503,-0.230455 -3.59503,0 z"
       id="path1423"
       style="opacity:0.993548;fill:#42526e;fill-opacity:1;stroke-width:1.29967" />
    <path
       inkscape:export-ydpi="5.3240128"
       inkscape:export-xdpi="5.3240128"
       inkscape:export-filename="C:\Users\igora\path1305.png"
       d="m 723.27813,60.923355 c -1.27546,5.259728 -2.71455,10.495232 -3.69756,15.809112 -0.65619,3.547092 -1.22163,7.108432 -1.68818,10.67874 -0.51562,3.94566 -0.83835,7.908742 -1.25751,11.863112 -0.98573,11.033191 -1.59262,22.171591 -0.43329,33.207311 0.37072,3.52936 1.17073,8.06181 2.62057,11.4917 0.40517,0.95852 1.0909,1.79909 1.63635,2.69862 2.01837,1.41788 2.58423,2.49766 5.7389,0.97127 0.80369,-0.38887 0.9668,-1.39497 1.45021,-2.09245 0.11242,-0.25942 -3.9471,-1.66865 -4.05953,-1.40923 v 0 c 0.014,0.19672 -0.13843,0.47741 0.0401,0.59031 0.61558,0.38915 2.60043,0.68756 1.46844,0.50867 -0.18238,-0.70882 -0.4382,-1.40506 -0.54734,-2.12643 -0.61351,-4.05551 -0.45018,-6.37312 -0.31293,-10.72592 0.3433,-10.88526 1.12968,-21.75825 1.6295,-32.638421 0.52946,-8.752112 0.91661,-13.836449 1.14394,-22.478837 0.0705,-2.678277 0.0181,-5.357432 0.0622,-8.036016 0.045,-2.765395 0.32394,-5.558271 0.0762,-8.321253 10e-4,-0.246688 -3.86905,-0.236974 -3.87009,0.0097 z"
       id="path1425"
       style="opacity:0.993548;fill:#42526e;fill-opacity:1;stroke-width:1.39515" />
    <path
       inkscape:export-ydpi="5.3240128"
       inkscape:export-xdpi="5.3240128"
       inkscape:export-filename="C:\Users\igora\path1305.png"
       d="m 639.99827,111.59418 c 6.8521,-0.10887 13.69947,-0.32144 20.54744,-0.51892 5.77887,0.21432 11.52671,0.70611 17.29735,0.99844 0.26273,0.004 0.52586,0.0247 0.78822,0.0136 0.0658,-0.003 0.11766,-0.0462 0.18253,-0.0547 0.20209,-0.0263 0.76751,0.21115 0.95144,0.26259 0.22159,0.0823 1.84373,-2.16758 1.62211,-2.24993 v 0 c -0.29361,-0.0172 -0.14401,0.002 -0.44751,-0.0622 -0.0196,-10e-4 0.0518,0.0409 0.0344,0.0344 -0.51141,-0.19086 -0.82029,-0.59591 -1.45989,-0.64391 -0.54999,-0.13094 -1.08966,-0.28679 -1.64997,-0.39281 -2.16482,-0.40962 -3.66932,-0.54525 -5.94823,-0.74499 -4.20251,-0.36832 -8.42944,-0.57514 -12.66489,-0.57488 -6.90636,-0.0248 -13.91412,0.10885 -20.62617,1.39546 -0.24995,0.0697 1.12321,2.60758 1.37318,2.53787 z"
       id="path1433"
       style="opacity:0.993548;fill:#42526e;fill-opacity:1;stroke-width:1.15659" />
    <path
       inkscape:export-ydpi="5.3240128"
       inkscape:export-xdpi="5.3240128"
       inkscape:export-filename="C:\Users\igora\path1305.png"
       d="m 640.7886,142.63853 c 3.06861,-1.03512 6.41754,-1.21558 9.61485,-1.38631 2.9025,-0.15499 5.80892,-0.23566 8.71503,-0.29072 9.36297,-0.1774 15.58412,-0.0708 25.09065,-0.009 15.24545,0.23436 7.48276,0.1523 23.28809,0.23787 0.57973,0.16645 2.93376,-8.03218 2.35403,-8.19863 v 0 c -17.39392,-1.07709 -8.03749,-0.73091 -28.07679,-0.8123 -11.37222,0.5973 -14.18471,0.44666 -25.06837,2.09312 -5.48378,0.82958 -12.13157,2.01817 -17.11217,4.79833 -0.45124,0.25188 -0.8315,0.61391 -1.24727,0.92086 -0.18711,0.17267 2.25483,2.81902 2.44195,2.64635 z"
       id="path1435"
       style="opacity:0.993548;fill:#42526e;fill-opacity:1;stroke-width:1.365" />
    <path
       inkscape:export-ydpi="5.3240128"
       inkscape:export-xdpi="5.3240128"
       inkscape:export-filename="C:\Users\igora\path1305.png"
       d="m 663.64253,168.45912 c 0.68298,-0.0857 1.36837,-0.15616 2.0489,-0.25724 6.92381,-1.02836 13.82155,-2.25083 20.71422,-3.4393 4.06731,-0.7013 16.48609,-2.86738 20.59711,-3.58381 7.2477,-1.29815 14.53526,-2.42397 21.74468,-3.90311 1.05287,-0.21601 2.10382,-0.44311 3.14351,-0.70851 0.39409,-0.10061 1.22268,-0.0147 1.15267,-0.3882 -0.22849,-1.21919 -1.22867,-2.19696 -1.84302,-3.29544 -0.22636,0.13126 1.77505,3.10045 2.00143,2.96919 v 0 c -0.45648,-1.15459 -0.57569,-2.47867 -1.36939,-3.46378 -0.33303,-0.41335 -1.08747,-0.2399 -1.64257,-0.27463 -1.17445,-0.0735 -2.3542,-0.075 -3.53102,-0.049 -7.67164,0.16957 -15.30973,1.03791 -22.8732,2.19862 -3.46246,0.60347 -6.94255,1.1257 -10.38739,1.81042 -10.01323,1.99032 -20.46603,4.61743 -29.88721,8.42285 -0.65458,0.2644 -1.28513,0.57726 -1.92772,0.8659 -0.23604,0.13503 1.82297,3.2311 2.059,3.09606 z"
       id="path1443"
       style="opacity:0.993548;fill:#42526e;fill-opacity:1;stroke-width:1.41735" />
    <path
       inkscape:export-ydpi="2.1434288"
       inkscape:export-xdpi="2.1434288"
       d="m 608.04281,301.86003 c 0.98751,1.42904 1.90373,2.91007 2.96252,4.28709 10.46382,13.60885 23.94378,26.0631 37.01129,37.07231 4.77324,4.02143 9.71873,7.83389 14.57809,11.75083 33.59846,27.52064 69.7679,51.66606 106.31913,75.03766 18.11968,11.00293 36.80624,21.42855 56.81446,28.6236 1.78305,0.64119 3.60085,1.18134 5.40128,1.772 2.32749,0.70646 4.69874,1.23314 7.09629,1.62565 0.34451,0.20635 3.26255,-4.66572 2.91803,-4.87204 v 0 c -2.00379,-1.08034 -4.16274,-1.76157 -6.21437,-2.75595 -20.3046,-9.37027 -39.49441,-20.90378 -58.22522,-33.08488 -5.36649,-3.46006 -10.81492,-6.79622 -16.09947,-10.38016 -5.4066,-3.66667 -10.64278,-7.57854 -15.96548,-11.36599 -24.58546,-17.49409 -49.16424,-34.9976 -73.75684,-52.48167 -19.94649,-15.25111 -39.90136,-30.61983 -57.73039,-48.36649 -0.22191,-0.36129 -5.3312,2.77675 -5.10932,3.13804 z"
       id="path1453"
       style="opacity:0.993548;fill:#42526e;fill-opacity:1;stroke-width:1.365" />
    <path
       inkscape:export-ydpi="2.1434288"
       inkscape:export-xdpi="2.1434288"
       d="m 566.91714,264.8231 c 4.79404,2.02739 9.48431,4.29691 14.29637,6.28115 22.14377,9.1309 44.73704,17.1245 66.87148,26.28665 8.81004,3.64675 17.52089,7.52866 26.28135,11.29299 18.43635,8.98076 28.0385,12.97163 45.08426,23.81086 5.91693,3.76251 11.74144,7.71726 17.1563,12.17216 8.94133,7.35618 19.73508,18.98044 26.85978,28.22964 3.79688,4.92903 7.07393,10.23747 10.6109,15.3562 8.23968,12.57366 15.58494,25.69186 23.16994,38.66103 1.75522,3.00114 3.44334,6.04244 5.26142,9.00591 3.664,5.97228 4.14568,6.41408 7.93287,11.49316 1.49744,1.64589 5.10453,6.06406 8.14885,4.14393 2.31002,-1.45701 1.02187,-4.14505 0.12687,-5.69259 -1.80073,-1.57425 -0.61944,-0.92729 -3.85718,-1.20362 -0.29831,0.13388 1.59496,4.35271 1.89328,4.21883 v 0 c -2.27023,-0.38303 -1.94805,0.33671 -2.24292,-0.75223 1.58419,1.41139 -1.23987,0.0445 1.76588,-0.66469 0.76599,-0.18074 1.55392,0.55888 2.32592,0.40579 1.42098,-0.28175 -9.90536,-3.70705 -2.75497,-3.36111 -11.71771,-19.98636 -20.4362,-41.59884 -33.08876,-61.07006 -8.11351,-11.82717 -13.53188,-20.60522 -23.25894,-31.24499 -9.76715,-10.68361 -20.72728,-20.1848 -32.62284,-28.42728 -17.60767,-12.20044 -26.05865,-15.68456 -45.42962,-25.62498 -8.90844,-3.80688 -17.71441,-7.86302 -26.72529,-11.42061 -27.69026,-10.93234 -56.33556,-19.60443 -85.37094,-26.13148 -0.29948,-0.17211 -2.73349,4.06322 -2.43401,4.23534 z"
       id="path1483"
       style="opacity:0.993548;fill:#42526e;fill-opacity:1;stroke-width:1.365" />
    <path
       inkscape:export-ydpi="2.1434288"
       inkscape:export-xdpi="2.1434288"
       d="m 564.51237,265.8832 c -0.65577,9.55852 -0.24661,19.28921 1.38404,28.74105 0.52588,3.04819 1.2955,6.04928 1.94326,9.07392 2.61173,8.73699 3.27411,12.1104 7.3116,20.57505 6.38537,13.38702 15.32729,25.29607 25.76883,35.7935 4.83423,4.8601 10.11079,9.25928 15.16618,13.8889 7.10769,5.38949 13.98804,11.09274 21.32309,16.16848 17.55264,12.14612 36.81058,23.24317 55.95792,32.58648 20.20361,9.85874 39.6839,17.76177 61.24971,24.01202 8.22362,2.38339 16.68693,3.8445 25.03038,5.76675 21.93666,1.88145 12.03415,2.44727 29.75494,-0.24934 0.47516,-0.15857 -1.76716,-6.87851 -2.24232,-6.71997 v 0 c -11.63862,-0.52464 -4.14356,0.11597 -22.30533,-3.42757 -7.81907,-2.26626 -15.728,-4.24286 -23.45722,-6.79881 -22.02566,-7.28356 -38.22398,-14.07089 -59.44761,-23.88997 -10.23001,-4.73289 -20.42869,-9.55717 -30.3766,-14.85741 -18.76078,-9.99575 -30.23994,-17.95772 -47.76605,-29.35412 -11.86447,-9.7205 -17.12386,-13.14633 -26.94985,-24.26245 -10.34542,-11.70374 -17.64162,-25.63797 -22.04386,-40.56584 -0.69956,-2.86057 -1.49945,-5.69846 -2.09868,-8.58173 -1.90892,-9.18533 -2.5486,-18.56888 -3.29861,-27.89894 0,-0.34676 -4.90382,-0.34676 -4.90382,0 z"
       id="path1501"
       style="opacity:0.993548;fill:#42526e;fill-opacity:1;stroke-width:1.365" />
    <path
       inkscape:export-ydpi="2.1434288"
       inkscape:export-xdpi="2.1434288"
       d="m 728.51795,362.97311 c -0.91766,7.86305 -1.65941,15.91694 -0.73115,23.82107 0.2526,2.15104 0.75255,4.26575 1.12882,6.39864 2.16421,7.38198 0.85799,3.88776 3.83595,10.51313 0.0961,0.2643 3.83355,-1.0955 3.7374,-1.35977 v 0 c -2.6443,-6.12232 -1.47584,-2.87279 -3.40886,-9.78278 -0.36886,-1.99544 -0.85461,-3.97277 -1.10657,-5.98631 -0.96504,-7.71144 -0.29147,-15.53035 -0.25149,-23.26806 0.0238,-0.22656 -3.18034,-0.56248 -3.2041,-0.33592 z"
       id="path1571"
       style="opacity:0.993548;fill:#42526e;fill-opacity:1;stroke-width:1.365" />
    <path
       inkscape:export-ydpi="2.1434288"
       inkscape:export-xdpi="2.1434288"
       d="m 690.84231,341.21846 c 0.0381,9.36482 1.88148,18.61781 3.95595,27.71249 0.97745,3.12205 1.56551,6.59254 3.51893,9.32296 0.42111,0.58862 1.4414,1.54874 2.27005,1.53935 0.69167,-0.008 1.32871,-0.38521 1.99308,-0.57783 0.18338,-0.19989 0.36676,-0.39978 0.55014,-0.59967 0.13028,-0.17741 -2.37841,-2.0196 -2.5087,-1.84222 v 0 c -0.0308,0.0282 -0.0617,0.0565 -0.0926,0.0847 0.36134,-0.006 0.73996,-0.12684 1.084,-0.0164 0.15465,0.0497 0.37203,0.37941 0.21942,0.43505 -0.16957,0.0618 -0.30327,-0.21537 -0.39415,-0.37134 -0.29427,-0.50501 -0.5465,-1.0374 -0.74671,-1.58655 -0.83069,-2.27827 -1.35147,-4.7821 -1.91897,-7.11631 -1.87605,-8.93289 -3.69372,-17.90702 -4.71032,-26.9843 0,-0.2277 -3.22012,-0.2277 -3.22012,0 z"
       id="path1573"
       style="opacity:0.993548;fill:#42526e;fill-opacity:1;stroke-width:1.365" />
    <path
       inkscape:export-ydpi="2.1434288"
       inkscape:export-xdpi="2.1434288"
       d="m 662.73613,326.83471 c -1.09175,7.54769 -1.24113,15.19727 -0.39666,22.77102 0.63844,3.15545 0.16602,1.7794 1.23491,4.18637 0.0746,0.22058 3.19426,-0.83413 3.11968,-1.05471 v 0 c -0.63476,-1.79134 -0.31999,-0.67313 -0.67763,-3.41847 -0.54157,-7.38825 -0.37263,-14.78677 -0.0483,-22.18293 0.0214,-0.22855 -3.21069,-0.52983 -3.23202,-0.30128 z"
       id="path1575"
       style="opacity:0.993548;fill:#42526e;fill-opacity:1;stroke-width:1.365" />
    <path
       inkscape:export-ydpi="2.1434288"
       inkscape:export-xdpi="2.1434288"
       d="m 652.10025,361.61112 c 4.26651,-0.86154 8.49281,-2.10177 12.85108,-2.40364 -0.0532,0.003 -0.21154,-0.003 -0.15965,0.0103 1.53175,0.36563 3.10028,0.61881 4.66698,0.78195 1.98856,0.16156 3.98587,0.0818 5.97575,-0.003 0.22251,-0.065 -0.6967,-3.21186 -0.91922,-3.14685 v 0 c -1.33947,0.0482 -2.6794,0.12782 -4.01931,0.10319 -2.19461,-0.17095 -4.30318,-0.72811 -6.49062,-0.87961 -4.61534,0.15615 -9.16353,1.24724 -13.52767,2.71317 -0.19966,0.11475 1.42301,2.9383 1.62266,2.82358 z"
       id="path1577"
       style="opacity:0.993548;fill:#42526e;fill-opacity:1;stroke-width:1.365" />
    <path
       inkscape:export-ydpi="2.1434288"
       inkscape:export-xdpi="2.1434288"
       d="m 675.48561,388.52861 c 5.86319,-3.15466 12.44679,-4.74806 18.95287,-5.94892 1.02753,-0.0974 2.05507,-0.19476 3.08261,-0.29213 0.24291,-0.0837 -0.94089,-3.51911 -1.1838,-3.4354 v 0 c -1.11609,0.10872 -2.23216,0.21746 -3.34825,0.32618 -6.80591,1.22669 -13.74786,2.92259 -19.54771,6.86027 -0.17608,0.14457 1.8682,2.63457 2.04428,2.49 z"
       id="path1579"
       style="opacity:0.993548;fill:#42526e;fill-opacity:1;stroke-width:1.365" />
    <path
       inkscape:export-ydpi="2.1434288"
       inkscape:export-xdpi="2.1434288"
       d="m 721.03778,413.04675 c 2.80403,-1.77562 5.69717,-3.37873 8.8972,-4.34454 3.94427,-1.19049 7.92858,-1.75164 11.97565,-2.45787 0.27622,-0.11914 -1.40891,-4.02537 -1.68513,-3.90623 v 0 c -2.17281,0.43603 -4.37005,0.76444 -6.51846,1.30808 -5.50508,1.39292 -10.75397,3.53184 -15.10361,7.24722 -0.15227,0.17214 2.28208,2.32548 2.43435,2.15334 z"
       id="path1581"
       style="opacity:0.993548;fill:#42526e;fill-opacity:1;stroke-width:1.365" />
  </g>
</svg>
